<?xml version="1.0" encoding="utf-8"?>
<!-- Generator: Adobe Illustrator 28.0.0, SVG Export Plug-In . SVG Version: 6.00 Build 0)  -->
<svg version="1.1" id="Ebene_1" xmlns="http://www.w3.org/2000/svg" xmlns:xlink="http://www.w3.org/1999/xlink" x="0px" y="0px"
	 viewBox="0 0 1080 1080" style="enable-background:new 0 0 1080 1080;" xml:space="preserve">
<style type="text/css">
	.st0{fill:#334D28;}
</style>
<path class="st0" d="M498.95,156.26c16.53,0.86,27.47,2.7,32.81,5.52l-0.63,14.36c-4.5,0.55-10.63,0.67-18.41,0.37
	c-7.77-0.31-16.05-0.59-24.82-0.85c-24.49-0.68-41.25-0.09-50.28,1.8c-3.5,15.48-5.29,26.06-5.38,31.73
	c-0.09,5.67-0.11,10.08-0.09,13.21c0.32,7.65,0.26,16.66-0.2,27.01c11.24,0.58,24.15,0.08,38.71-1.52s25.84-2.72,33.83-3.38
	c7.98-0.66,16.19-0.78,24.62-0.34l-0.71,16.12l-95.59,9.14l-0.64,48.13c16.37,0.85,33.14,0.79,50.34-0.18
	c17.19-0.97,30.23-1.66,39.11-2.08c8.88-0.42,18.28-0.37,28.2,0.14c-0.17,3.91-1.33,7.57-3.47,10.98
	c-4.24,6.05-7.88,7.72-10.91,5.01c-29.26,2.2-55.38,3.78-78.37,4.74c-22.99,0.96-38.47,1.63-46.44,2l9.25-186.9
	c4.23,1.79,12.13,2.98,23.7,3.58L498.95,156.26z"/>
<path class="st0" d="M503.52,388.34c0-6.34,1.34-11.99,4.03-16.96c2.69-4.97,4.77-8.39,6.25-10.28s2.47-3.34,2.99-4.37
	c0.87,31.17,19.63,55.78,40.1,55.78c16.13,0,76.37-13.01,97.89-32.88c15.27-13.7,25.18-33.7,30.38-48.08
	c1.73-4.45,2.6-8.14,2.6-11.05c0-2.91-0.26-5.22-0.78-6.94L578.9,257.25c-3.12-1.37-6-5.28-11.31-9.06
	c-2.04-2.08-5.08-3.46-5.78-11.69c-1.99-23.54,8.5-45.05,25.5-64.23c18.74-20.9,43.81-36.65,75.21-47.27
	c7.11-2.4,12.4-3.77,15.87-4.11c1.04,0.69,2.65,1.28,4.81,1.8s4.38,1.28,6.64,2.31c5.38,2.4,5.71,5.05,5.71,5.05
	c0,11.65-12.56,16.98-35.11,23.83c-29.15,8.56-44.98,27.98-52.18,33.81c-7.2,5.82-12.4,11.82-15.61,17.98s-4.9,13.53-5.07,22.1
	c0,1.71,2,3.6,5.99,5.65s8.76,4.54,14.31,7.45c5.55,2.91,12.75,6.77,21.6,11.56c21.51,11.65,47.88,26.38,79.11,44.19
	c1.73,7.54,2.6,14.56,2.6,21.07c0,18.16-5.38,35.63-16.13,52.41c-12.14,18.84-28.97,34.77-50.49,47.79
	c-17.87,10.62-81.28,15.93-91.86,15.93c-8.85,0-17.26-3.08-25.24-9.25s-13.97-12.16-17.96-17.98
	C505.52,400.76,503.52,394.68,503.52,388.34z"/>
<path class="st0" d="M836.31,221.55l-10.6,0.27c-9.57,1.31-28.27-2.26-38.66-0.43c-0.45,10.19,1.32,86.51,1.73,105.07
	c1.28,57.69-3.99,272.07-3.99,289.18c0,17.11,12.52,74.12,12.97,81.18l-20.62-10.54l-14.23-467.16l-72.14-4.7
	c-1.81,0-3.22-1.7-4.23-5.09c-1.02-3.4-1.52-6.53-1.52-9.41s-2.03,3.63,0,0.24c2.03-3.4,4.4-5.09,7.11-5.09
	c16.48,0.78,33.08,2.09,49.79,3.92c30.93,3.14,26.49,2.99,48.84,3.94l1.6-0.05c16.48-0.52,44.99,4.5,61.24,0.84
	c3.61,0.78,8.92-2.33,9.82,9.95c0.23,2.61,0.34,4.7,0.34,6.27C842.09,221.68,854.83,221.55,836.31,221.55z"/>
<path class="st0" d="M363.81,707.43l3.73-114.69c-15.7,15.45-26.61,25.68-32.73,30.67c-14.21,11.17-25.61,11.64-36.35,11.64
	c-12.89,0-15.44-3.55-24.69-17.1c-9.42-14.03-14.13-30.08-14.13-48.15c0.83-19.02,3.64-38.28,8.43-57.78
	c9.92-41.37,19.39-63.81,42.36-83.07c11.4-9.75,21.9-20.6,36.78-20.6c0.33,0,0.66,0,0.99,0l6.69-0.36c7.6,0,11.07,4.28,10.41,12.84
	c-13.22,0.95-25.62,5.35-37.19,13.2c-11.57,7.85-18.97,24.35-27.48,37.54c-8.51,13.2-8.23,20.72-13.11,38.31s-7.31,35.55-7.31,53.85
	c0,18.31,3.31,31.5,9.92,39.59c6.61,8.08,6.59,8.9,17.01,8.9c8.93,0,20.23-0.47,36.1-11.64c10.08-7.13,17.6-15.22,22.56-24.25
	c2.48-4.28,3.72-8.8,3.72-13.55V510c-4.96,0-16.49,2.73-34.59,8.2c-18.1,5.47-13.93,5.99-16.74,6.7c-0.83-0.71-1.82-1.49-2.98-2.32
	s-1.82-2.08-1.98-3.74c-0.33-3.57,3.31-9.04,10.91-16.41c1.82-1.43-1.9-1.65,18.1-5.81s32.73-6.84,38.18-8.02
	c5.45-1.19,10-2.14,13.64-2.85c1.65,0.48,3.72,0.42,6.2-0.18c2.48-0.59,4.79-0.77,6.94-0.53c5.29,0.24,7.77,4.4,7.44,12.48
	l-20.58,12.13c-3.14,14.5-4.71,41.85-4.71,82.03l0.5,53.14c0,4.76-3.73,58.58-3.73,62.62c-4.96,3.57-9.75,5.35-14.38,5.35
	C367.12,712.78,364.48,711,363.81,707.43z"/>
<path class="st0" d="M534.25,477.23c17.59,0,29.29,1.38,35.09,4.15v15.66c-4.75,0.85-11.26,1.33-19.53,1.44
	c-8.27,0.11-17.06,0.27-26.39,0.48c-26.03,0.64-43.8,2.24-53.3,4.79c-2.99,17.04-4.4,28.65-4.22,34.82
	c0.18,6.18,0.35,10.97,0.53,14.38c0.7,8.31,1.06,18.1,1.06,29.39c11.96,0,25.64-1.28,41.03-3.83c15.39-2.56,27.31-4.42,35.75-5.59
	c8.44-1.17,17.15-1.76,26.12-1.76v17.57l-101.06,15.34l1.58,52.4c17.41,0,35.23-1.01,53.43-3.04c18.21-2.02,32.02-3.51,41.43-4.47
	c9.41-0.96,19.39-1.44,29.95-1.44c0,4.26-1.06,8.31-3.17,12.14c-4.22,6.82-8,8.84-11.35,6.07c-30.96,4.05-58.62,7.24-82.98,9.58
	c-24.36,2.34-40.77,3.94-49.21,4.79l1.06-203.83c4.57,1.7,13.02,2.56,25.33,2.56L534.25,477.23z"/>
<path class="st0" d="M797.43,620.67c0,66.47,3.7,105.9-2.69,117.27l-16.76-15.25c-14.05-20.77-20.69-31.8-49.81-78.71
	c-13.03-14.87-21.81-34.39-34.71-49.04c-12.9-14.65-25.89-33.28-36.62-47.71c-5.11,19.46-7.66,58.38-7.66,116.75
	c0,22.3-0.51,74.06-1.53,89.37c-4.85,3.94-10.16,5.9-15.9,5.9c-5.75,0-2.85,0.98-5.15,0c-2.3-0.98-3.45-2.62-3.45-4.92
	s0.32-5.9,0.96-10.82s1.41-46.13,2.3-57.72c0.89-11.59,1.72-23.83,2.49-36.73c2.04-33.67,3.07-62.69,3.07-87.07
	s-0.26-44.44-0.77-60.18c2.31-6.39,3.34-7.55,6.41-9.51s5.44-1.01,9.27,1.07c3.83,2.08,12.02,13,18.03,19.89
	c6,6.89,14.5,17.11,25.49,30.66c37.56,45.69,47.87,79.73,84.15,119.74l-9.04-360.61c2.81-4.37,5.62-7.38,8.43-9.02
	s8.18-6.3,11.11-2.46c4.85,6.36,2.84,8.71,3.49,24.77l0.31,16.48L797.43,620.67z"/>
<path class="st0" d="M422.14,925.55c0,4.79,3.21,7.57-3.24,7.57c-3.12,0-10.27,0.56-12.88-0.64c-2.6-1.2-4.22-2.2-4.84-3l3.12-51.14
	c-19.15,21.04-33.1,34.23-41.84,39.55c-13.74,8.79-27.79,13.18-42.15,13.18c-2.71,0-5.52-0.13-8.43-0.4
	c-30.39-4.26-45.59-29.17-45.59-74.71c0-20.78,4.16-56.07,12.49-105.88c2.71-15.45,5.01-65.78,5.84-78.57
	c0.62-0.27,1.98-0.4,4.06-0.4h3.75c1.04-0.27,1.98-0.4,2.81-0.4c6.66,0,9.99,6.39,9.99,19.18c0,8.79-1.88,55.93-4.59,68.98
	c-8.33,42.88-12.49,72.58-12.49,89.1c0,17.31,3.54,30.9,10.62,40.75c4.58,6.39,11.76,10.25,21.55,11.59c1.25,0,2.5,0,3.75,0
	c33.93,0,56.21-20.91,66.82-62.73c6.25-24.5,9.89-54.07,10.93-88.7c0.62-15.98,1.14-31.83,1.56-47.54c2.29-7.99,0.27-4.19,4.23-4.19
	c3.96,0,8.33,2.26,13.11,6.79c0.62,15.45-0.36,22.46-0.36,37.37l1.17,151.46C421.51,903.71,421.72,914.63,422.14,925.55z"/>
<path class="st0" d="M454.52,902.1c0-4.49,1.26-8.49,3.77-12s4.46-5.94,5.84-7.27c1.38-1.33,2.31-2.36,2.8-3.09
	c0.81,22.07,10.79,33.1,29.94,33.1c15.09,0,32.7-7.03,52.83-21.1c14.28-9.7,23.86-19.64,28.73-29.82c1.62-3.15,2.43-5.76,2.43-7.82
	c0-2.06-0.24-3.7-0.73-4.91l-101.03-33.83c-2.92-0.97-5.76-3.03-8.52-6.18c-5.03-5.33-7.55-10.18-7.55-14.55
	c0-16.73,7.95-31.89,23.86-45.46c17.53-14.79,40.98-25.95,70.36-33.46c6.65-1.7,11.6-2.67,14.85-2.91c0.97,0.48,2.48,0.91,4.5,1.27
	s4.1,0.91,6.21,1.64c5.03,1.7,7.14,4.85,6.33,9.46c0,8.24-10.55,14.79-31.65,19.64c-27.27,6.06-44.27,11.15-51,15.28
	c-6.74,4.12-11.6,8.37-14.61,12.73c-3,4.36-4.58,9.58-4.75,15.64c0,1.21,1.87,2.55,5.6,4c3.73,1.45,8.2,3.21,13.39,5.27
	c5.19,2.06,11.93,4.79,20.21,8.18c20.12,8.24,44.79,18.67,74.01,31.28c1.62,5.33,2.43,10.31,2.43,14.91
	c0,12.85-5.03,25.22-15.09,37.1c-11.36,13.34-27.1,24.61-47.23,33.83c-16.72,7.52-30.02,11.28-39.92,11.28
	c-8.28,0-16.15-2.18-23.61-6.55s-13.06-8.61-16.8-12.73C456.39,910.89,454.52,906.58,454.52,902.1z"/>
<path class="st0" d="M628.97,912.16c-0.24-3.46,0.95-6.67,3.56-9.61c2.61-2.94,4.65-4.99,6.12-6.14s2.45-2.03,2.95-2.64
	c2.07,16.97,13.77,24.59,35.09,22.87c16.8-1.36,36.04-8.37,57.7-21.03c15.39-8.77,25.52-17.31,30.4-25.61
	c1.64-2.58,2.41-4.67,2.3-6.26c-0.11-1.59-0.47-2.83-1.07-3.73l-114.28-17.05c-3.3-0.49-6.58-1.82-9.81-4.01
	c-5.88-3.67-8.94-7.19-9.17-10.56c-0.89-12.92,7.16-25.34,24.15-37.25c18.73-13,44.25-23.72,76.56-32.16
	c7.32-1.91,12.78-3.1,16.38-3.58c1.11,0.29,2.8,0.48,5.08,0.58c2.28,0.1,4.61,0.33,7,0.71c5.69,0.86,8.21,3.1,7.55,6.73
	c0.44,6.37-10.96,12.37-34.19,18.01c-30.04,7.13-48.69,12.59-55.97,16.38c-7.28,3.79-12.48,7.5-15.59,11.14
	c-3.11,3.64-4.6,7.81-4.46,12.5c0.06,0.94,2.21,1.8,6.45,2.59c4.23,0.79,9.3,1.75,15.19,2.87c5.89,1.13,13.54,2.63,22.93,4.51
	c22.84,4.56,50.86,10.4,84.06,17.51c2.09,3.97,3.26,7.74,3.5,11.3c0.68,9.92-4.26,19.93-14.84,30
	c-11.94,11.32-28.87,21.44-50.79,30.36c-18.21,7.31-32.83,11.4-43.85,12.29c-9.22,0.74-18.09-0.24-26.64-2.94
	c-8.54-2.7-15-5.47-19.38-8.32C631.51,918.78,629.2,915.62,628.97,912.16z"/>
<path class="st0" d="M422.38,383.99c-2.94-2.74-5.31-4.9-7.11-6.47c-37.71-25.6-74.4-49.64-110.08-72.11
	c-11.97-7.58-21.34-13.39-28.11-17.44c-6.77-4.05-11.85-7.18-15.24-9.41c-3.39-2.22-5.53-3.79-6.44-4.7
	c-0.9-0.91-1.35-2.02-1.35-3.33c4.52-3.4,13.66-8.1,27.43-14.11c6.32-2.61,18.57-7.51,36.75-14.7c18.18-7.18,29.41-11.95,33.7-14.3
	c28.9-14.11,43.35-28.35,43.35-42.72c0-6.27-3.44-12.02-10.33-17.24c-6.89-5.23-17.22-10.19-30.99-14.89
	c-13.77-4.7-30.82-7.05-51.14-7.05c-32.52,0-54.98,6.92-67.4,20.77c-1.13-1.83-2.6-4.05-4.4-6.66c-7.9-11.5-7-7.01-12.42,3.71
	c2.94,29.26,4.4,63.23,4.4,101.89L221.98,344c0,22.47-8.2,569.39-5.03,577.75c2.26,5.49,5.76,8.23,10.5,8.23h3.41
	c7.68,0,4.27-7.49,4.27-12.72l9.78-621.25c14.9,5.75,35.11,18.16,60.63,37.23c10.84,7.84,21.51,15.94,32.01,24.3
	c10.5,8.36,22.92,18.16,37.26,29.39s23.77,16.85,28.28,16.85h6.77c2.71,0,5.31-0.33,7.79-0.98s4.63-1.63,6.44-2.94
	c1.81-1.31,2.71-3.59,2.71-6.86S425.31,386.73,422.38,383.99z M248.49,243.81c-4.87-9.16-0.95-29.1,0-35.71
	c0.95-6.61,5.15-17.19,8.43-21.18c3.28-3.99,26.34-17.24,26.34-17.24c5.15-3.37,8.54-3.48,16.68-4.41c0,0,13.07-2.63,38.12,4.69
	c17.28,5.05,23.54,14.23,21.49,25.43c-2.05,11.2-65.25,32.64-65.25,32.64c-0.86,0.43-1.73,0.79-2.62,1.1
	C291.67,229.14,253.35,252.97,248.49,243.81z"/>
</svg>
